<svg width="28" height="31" viewBox="0 0 28 31" fill="none" xmlns="http://www.w3.org/2000/svg">
<path d="M24.1666 27.8535V11.3301H3.21344V27.8535H24.1666ZM24.1666 3.80664C24.9634 3.80664 25.6666 4.11133 26.2759 4.7207C26.8853 5.33008 27.19 6.0332 27.19 6.83008V27.8535C27.19 28.6504 26.8853 29.3535 26.2759 29.9629C25.6666 30.5254 24.9634 30.8066 24.1666 30.8066H3.21344C2.36969 30.8066 1.64313 30.5254 1.03375 29.9629C0.471252 29.4004 0.190002 28.6973 0.190002 27.8535V6.83008C0.190002 6.0332 0.471252 5.33008 1.03375 4.7207C1.64313 4.11133 2.36969 3.80664 3.21344 3.80664H4.69V0.853516H7.71344V3.80664H19.6666V0.853516H22.69V3.80664H24.1666ZM21.2134 14.3535V17.3066H18.19V14.3535H21.2134ZM15.1666 14.3535V17.3066H12.2134V14.3535H15.1666ZM9.19 14.3535V17.3066H6.16656V14.3535H9.19Z" fill="#0088CC"/>
</svg>
